<svg xmlns:xlink="http://www.w3.org/1999/xlink" xmlns="http://www.w3.org/2000/svg" width="1000" height="220.54370180277036" viewBox="0 0 350 77.19029563096962" class="css-1j8o68f"><defs id="SvgjsDefs1011"></defs><g id="SvgjsG1012" featurekey="symbolFeature-0" transform="matrix(0.9737876732768804,0,0,0.9737876732768804,126.99988071497634,-29.157322697270605)" fill="#FFFFFF"><path xmlns="http://www.w3.org/2000/svg" d="M0.014,50.846c0.371,2.654,6.256,3.359,8.333,3.782c1.347,0.274,2.707,0.54,4.073,0.704  c0.603,0.072,1.183,0.301,1.783,0.355c0.614,0.057,1.33-0.138,1.917,0.054c5.769,1.878,12.253,1.812,18.271,2.007  c2.825,0.091,5.707-0.207,8.515-0.493c1.116-0.114,2.232-0.233,3.347-0.361c0.099-0.012,1.43,3.028,1.543,3.234  c0.821,1.504,5.005,7.863,5.737,3.179c0.23-1.478,1.156-2.363,0.972-3.985c-0.145-1.264-2.204-1.779-3.204-2.191  c-0.436-0.179-0.875-0.352-1.315-0.517c2.777-0.163,5.547-0.433,8.327-0.575c1.256-0.064,2.512-0.07,3.769-0.144  c1.092-0.063,2.407-1.106,2.949-0.114c1.191,2.178,3.499,4.625,5.614,5.875c1.298,0.767,3.852,2.285,5.028,0.653  c0.554-0.768,0.604-2.759,0.216-3.629c0.202-0.259,0.273-1.253,0.402-1.727c0.189-0.699,0.381-1.386,0.668-2.054  c0.224-0.522,1.099-1.773,0.146-1.902c-1.196-0.164-2.382-0.222-3.59-0.239c1.262-0.706,4.232-0.343,5.679-0.243  c1.729,0.117,3.31,0.739,4.993,1.057c2.659,0.501,5.103,2.001,7.578,3.056c1.877,0.799,5.059,2.356,7.194,1.523  c0.569-0.223,0.358-0.646,0.489-1.074c0.085-0.281,0.343-0.91,0.36-1.049c0.119-0.915-0.139-1.942-0.139-2.931  c0-0.724-0.623-1.706-0.895-2.406c-0.303-0.778-0.674-1.77-0.71-2.621c-0.057-1.333,0.673-2.183,1.075-3.485  c0.482-1.558,0.838-3.301,0.602-4.94c-0.096-0.657-0.361-1.862-0.844-2.37c-0.834-0.879-2.277-0.39-3.264,0.021  c-2.378,0.992-4.639,2.375-6.925,3.558c-1.488,0.771-2.674,1.221-4.353,1.512c-2.472,0.429-4.522,1.116-7.08,0.985  c1.011-1.011-1.037-2.289-1.851-2.529c-0.832-0.247-2.134,0.381-2.903,0.635c-1.949,0.641-3.123,0.637-5.153,0.253  c-4.276-0.81-8.626-1.293-12.949-1.783c1.094,0.047,4.091-0.049,4.816-0.975c0.447-0.573-2.893-4.295-3.828-5.07  c-0.596-0.494-0.847-0.685-1.356-1.265c-0.116-0.131-1.142-0.979-1.142-1.188c0-0.611-0.765-0.833-1.034-1.157  c-0.637-0.765-2.201-0.01-2.993,0.366c-2.473,1.174-4.404,4.672-5.995,6.793c-1.263,1.683-2.842,1.233-4.845,1.23  c-5.155-0.084-10.323,0.296-15.419,1.069c-6.847,1.04-14.1,2.756-20.289,5.887c-0.721,0.365-2.947,2.171-1.426,2.931  c0.689,0.345,1.482,0.364,2.154,0.761c0.585,0.347,1.162,0.71,1.738,1.073c-0.585,0.042-1.873,0.532-2.338,0.422  C1.992,50.694-0.158,49.618,0.014,50.846C0.095,51.43-0.042,50.447,0.014,50.846z" fill="#FFFFFF"></path></g><g id="SvgjsG1013" featurekey="nameFeature-0" transform="matrix(0.891934381913069,0,0,0.891934381913069,-1.7789295620130352,41.29885460570548)" fill="#FFFFFF"><path d="M10.04 40 c-3.12 0 -5.8 -1.32 -7.92 -3.92 c-0.16 -0.16 -0.16 -0.4 -0.04 -0.6 l2.4 -3.84 c0.08 -0.12 0.24 -0.24 0.4 -0.24 s0.32 0.04 0.4 0.16 c0.76 0.84 1.56 1.48 2.36 1.88 c0.76 0.44 1.48 0.64 2.12 0.64 c0.76 0 1.28 -0.2 1.68 -0.64 c0.4 -0.48 0.6 -1.12 0.6 -2 l0 -2.6 c-0.04 0 -0.04 0 -0.04 0.04 l0 -13.6 c0 -0.28 0.24 -0.52 0.52 -0.52 l5.24 0 c0.28 0 0.52 0.24 0.52 0.52 l0 16.28 c0 2.64 -0.76 4.72 -2.2 6.2 c-1.48 1.48 -3.48 2.24 -6.04 2.24 z M22.28 40 l0 -23.96 c0 -1 0.2 -1.2 0.52 -1.2 l17.52 0 c0.28 0 0.52 0.2 0.52 0.48 l0 4.52 c0 0.28 -0.24 0.52 -0.52 0.52 l-11.84 0 l0 4.16 l7.48 0 c0.28 0 0.52 0.24 0.52 0.52 l0 4.48 c0 0.28 -0.24 0.52 -0.52 0.52 l-7.48 0 l0 4.28 l11.8 0 c0.28 0 0.52 0.24 0.52 0.52 l0 4.48 c0 0.28 -0.24 0.52 -0.52 0.52 l-17.48 0 c-0.32 0 -0.52 -0.24 -0.52 0.16 z M53.120000000000005 40 c-0.24 0 -0.44 -0.16 -0.48 -0.36 l-7.76 -23.96 c-0.08 -0.16 -0.04 -0.32 0.08 -0.48 c0.08 -0.12 0.24 -0.2 0.4 -0.2 l5.6 0 c0.2 0 0.44 0.16 0.48 0.36 l4.16 14.44 l3.8 -13.72 c0.04 -0.24 0.24 -0.4 0.48 -0.4 l5.08 0 c0.24 0 0.44 0.16 0.52 0.4 l3.84 13.72 l4.08 -14.44 c0.08 -0.2 0.28 -0.36 0.52 -0.36 l5.36 0 c0.16 0 0.32 0.08 0.4 0.2 c0.12 0.16 0.12 0.32 0.08 0.48 l-7.8 23.96 c-0.08 0.2 -0.24 0.36 -0.48 0.36 l-4.68 0 c-0.24 0 -0.44 -0.16 -0.48 -0.36 l-4 -14.2 l-4.08 14.2 c-0.04 0.2 -0.24 0.36 -0.48 0.36 l-4.64 0 z M83.4 40 l0 -23.96 c0 -1 0.2 -1.2 0.52 -1.2 l17.52 0 c0.28 0 0.52 0.2 0.52 0.48 l0 4.52 c0 0.28 -0.24 0.52 -0.52 0.52 l-11.84 0 l0 4.16 l7.48 0 c0.28 0 0.52 0.24 0.52 0.52 l0 4.48 c0 0.28 -0.24 0.52 -0.52 0.52 l-7.48 0 l0 4.28 l11.8 0 c0.28 0 0.52 0.24 0.52 0.52 l0 4.48 c0 0.28 -0.24 0.52 -0.52 0.52 l-17.48 0 c-0.32 0 -0.52 -0.24 -0.52 0.16 z M106.48 40 c-0.28 0 -0.52 -0.24 -0.52 -0.52 l0 -23.96 c0 -0.28 0.24 -0.52 0.52 -0.52 l5.2 0 c0.28 0 0.52 0.24 0.52 0.52 l0 18.72 l9 0 c0.28 0 0.52 0.24 0.52 0.52 l0 4.72 c0 0.28 -0.24 0.52 -0.52 0.52 l-14.72 0 z M126.24000000000001 40 c-0.28 0 -0.52 -0.24 -0.52 -0.52 l0 -23.96 c0 -0.28 0.24 -0.52 0.52 -0.52 l5.2 0 c0.28 0 0.52 0.24 0.52 0.52 l0 18.72 l9 0 c0.28 0 0.52 0.24 0.52 0.52 l0 4.72 c0 0.28 -0.24 0.52 -0.52 0.52 l-14.72 0 z M156.28000000000003 40 l0 -23.96 c0 -1 0.2 -1.2 0.52 -1.2 l17.52 0 c0.28 0 0.52 0.2 0.52 0.48 l0 4.52 c0 0.28 -0.24 0.52 -0.52 0.52 l-11.84 0 l0 4.16 l7.48 0 c0.28 0 0.52 0.24 0.52 0.52 l0 4.48 c0 0.28 -0.24 0.52 -0.52 0.52 l-7.48 0 l0 4.28 l11.8 0 c0.28 0 0.52 0.24 0.52 0.52 l0 4.48 c0 0.28 -0.24 0.52 -0.52 0.52 l-17.48 0 c-0.32 0 -0.52 -0.24 -0.52 0.16 z M179.32000000000002 40 c-0.2 0 -0.36 -0.12 -0.44 -0.28 s-0.08 -0.36 0 -0.52 l6.72 -11.96 l-6.16 -11.44 c-0.08 -0.16 -0.08 -0.36 0 -0.52 s0.24 -0.28 0.44 -0.28 l5.64 0 c0.2 0 0.36 0.08 0.44 0.24 l3.36 6.32 l3.36 -6.32 c0.08 -0.16 0.24 -0.24 0.44 -0.24 l5.76 0 c0.16 0 0.36 0.12 0.44 0.28 s0.08 0.36 -0.04 0.52 l-6.08 11.2 l6.76 12.2 c0.08 0.16 0.12 0.36 0 0.52 c-0.08 0.16 -0.24 0.28 -0.44 0.28 l-5.8 0 c-0.2 0 -0.36 -0.08 -0.44 -0.24 l-3.96 -7 l-3.88 7 c-0.12 0.16 -0.28 0.24 -0.44 0.24 l-5.68 0 z M204.52 40 c-0.28 0 -0.48 -0.24 -0.48 -0.52 l0 -23.96 c0 -0.28 0.2 -0.52 0.48 -0.52 l9.8 0 c3.04 0 5.44 0.76 7.12 2.32 c2.48 2.24 3.32 6.48 2.12 9.6 c-0.44 1.12 -1.2 2.16 -2.16 2.92 c-3.24 2.52 -7.28 2.28 -11.16 2.28 l0 7.36 c0 0.28 -0.24 0.52 -0.52 0.52 l-5.2 0 z M210.24 26.560000000000002 c0 0 5.04 0.56 6.8 -0.6 c0.68 -0.44 1.08 -1.52 1.08 -2.32 c-0.04 -0.88 -0.48 -1.8 -1.2 -2.36 c-0.76 -0.64 -2.64 -0.84 -3.6 -0.84 l-3.08 0.08 l0 6.04 z M228.16000000000003 40 l0 -23.96 c0 -1 0.2 -1.2 0.52 -1.2 l17.52 0 c0.28 0 0.52 0.2 0.52 0.48 l0 4.52 c0 0.28 -0.24 0.52 -0.52 0.52 l-11.84 0 l0 4.16 l7.48 0 c0.28 0 0.52 0.24 0.52 0.52 l0 4.48 c0 0.28 -0.24 0.52 -0.52 0.52 l-7.48 0 l0 4.28 l11.8 0 c0.28 0 0.52 0.24 0.52 0.52 l0 4.48 c0 0.28 -0.24 0.52 -0.52 0.52 l-17.48 0 c-0.32 0 -0.52 -0.24 -0.52 0.16 z M251.24000000000004 40 c-0.32 0 -0.52 -0.24 -0.52 -0.52 l0 -23.96 c0 -0.28 0.2 -0.52 0.52 -0.52 l9.08 0 c2.4 0 4.6 0.52 6.52 1.6 c1.92 1.04 3.4 2.52 4.48 4.44 c1.04 1.88 1.6 4.04 1.6 6.44 c0 2.44 -0.56 4.6 -1.64 6.48 c-1.08 1.92 -2.6 3.4 -4.56 4.44 c-1.92 1.08 -4.16 1.6 -6.6 1.6 l-8.88 0 z M256.92 34.4 l3.52 0 c1.16 0 2.24 -0.28 3.16 -0.84 c0.92 -0.6 1.68 -1.4 2.2 -2.44 s0.8 -2.24 0.8 -3.6 c0 -1.32 -0.28 -2.56 -0.84 -3.6 c-0.56 -1.08 -1.32 -1.88 -2.28 -2.48 c-0.96 -0.56 -2.08 -0.88 -3.28 -0.88 l-3.28 0 l0 13.84 z M277.44 40 c-0.28 0 -0.52 -0.24 -0.52 -0.52 l0 -23.96 c0 -0.28 0.24 -0.52 0.52 -0.52 l5.2 0 c0.28 0 0.52 0.24 0.52 0.52 l0 23.96 c0 0.28 -0.24 0.52 -0.52 0.52 l-5.2 0 z M293.64000000000004 40 c-0.28 0 -0.48 -0.24 -0.48 -0.52 l0 -18.88 l-5.48 0 c-0.28 0 -0.52 -0.2 -0.52 -0.48 l0 -4.6 c0 -0.28 0.24 -0.52 0.52 -0.52 l17.16 0 c0.32 0 0.52 0.24 0.52 0.52 l0 4.6 c0 0.28 -0.2 0.48 -0.52 0.48 l-5.48 0 l0 18.88 c0 0.28 -0.24 0.52 -0.52 0.52 l-5.2 0 z M309.88 40 c-0.28 0 -0.52 -0.24 -0.52 -0.52 l0 -23.96 c0 -0.28 0.24 -0.52 0.52 -0.52 l5.2 0 c0.28 0 0.52 0.24 0.52 0.52 l0 23.96 c0 0.28 -0.24 0.52 -0.52 0.52 l-5.2 0 z M332.48 40 c-2.4 0 -4.6 -0.56 -6.52 -1.68 c-1.96 -1.12 -3.52 -2.72 -4.68 -4.64 c-1.12 -1.96 -1.68 -4.2 -1.68 -6.6 c0 -2.36 0.56 -4.56 1.68 -6.52 c1.16 -1.96 2.68 -3.52 4.64 -4.64 s4.16 -1.68 6.56 -1.68 c2.36 0 4.56 0.56 6.52 1.68 s3.52 2.68 4.64 4.64 c1.16 1.96 1.72 4.16 1.72 6.52 c0 2.4 -0.56 4.6 -1.72 6.56 c-1.12 1.96 -2.68 3.52 -4.64 4.68 c-1.96 1.12 -4.16 1.68 -6.52 1.68 z M332.56 34.24 c1.16 0 2.24 -0.32 3.2 -0.92 c1 -0.64 1.8 -1.48 2.36 -2.6 c0.6 -1.08 0.88 -2.32 0.88 -3.64 c0 -1.28 -0.28 -2.52 -0.88 -3.6 c-0.56 -1.08 -1.36 -1.92 -2.36 -2.56 c-0.96 -0.6 -2.04 -0.92 -3.2 -0.92 c-1.2 0 -2.28 0.32 -3.28 0.92 c-1.04 0.64 -1.84 1.48 -2.44 2.56 c-0.6 1.12 -0.88 2.32 -0.88 3.6 c0 1.32 0.28 2.56 0.88 3.64 c0.64 1.08 1.44 1.96 2.44 2.56 c1 0.64 2.08 0.96 3.28 0.96 z M349.88 40 c-0.28 0 -0.52 -0.24 -0.52 -0.52 l0 -23.96 c0 -0.28 0.24 -0.52 0.52 -0.52 l4.72 0 c0.16 0 0.32 0.08 0.44 0.2 l9.2 14.2 l0 -13.88 c0 -0.28 0.24 -0.52 0.52 -0.52 l4.92 0 c0.28 0 0.52 0.24 0.52 0.52 l0 23.96 c0 0.28 -0.24 0.52 -0.52 0.52 l-4.72 0 c-0.16 0 -0.32 -0.08 -0.44 -0.2 l-9.16 -14.12 l0 13.8 c0 0.28 -0.24 0.52 -0.52 0.52 l-4.96 0 z M384.88 40.24 c-1.92 0 -3.84 -0.36 -5.68 -1.08 c-1.84 -0.68 -3.48 -1.68 -4.84 -2.88 c-0.16 -0.16 -0.2 -0.4 -0.12 -0.6 l1.4 -4.76 c0.08 -0.16 0.2 -0.28 0.36 -0.28 c0.16 -0.04 0.32 0 0.44 0.12 c2.12 2 4.52 3.8 7.52 3.96 c0.8 0.04 1.68 0.08 2.44 -0.16 c2.36 -0.76 1.36 -3.16 -0.4 -3.88 c-0.6 -0.24 -1.44 -0.52 -2.52 -0.84 c-1.6 -0.44 -2.92 -0.92 -3.92 -1.4 c-1.08 -0.48 -2 -1.24 -2.8 -2.24 c-0.76 -1.04 -1.16 -2.4 -1.16 -4.04 c0 -1.56 0.4 -2.92 1.2 -4.08 s1.92 -2.08 3.32 -2.68 s3.04 -0.92 4.88 -0.92 c1.64 0 3.24 0.24 4.84 0.76 c1.56 0.48 2.96 1.16 4.2 1.96 c0.2 0.16 0.28 0.4 0.16 0.64 l-1.32 4.48 c-0.04 0.16 -0.16 0.24 -0.32 0.28 c-0.12 0.04 -0.28 0.04 -0.4 -0.04 c-1.8 -1.12 -3.6 -2.48 -5.72 -2.76 c-1.4 -0.2 -3.52 -0.12 -4 1.56 c-0.6 2.16 2.56 2.72 4 3.16 c1.6 0.48 2.92 0.96 3.96 1.44 c1.08 0.52 2.04 1.32 2.8 2.32 c0.8 1.04 1.2 2.44 1.2 4.12 c0 1.64 -0.44 3.04 -1.28 4.24 c-0.8 1.2 -1.96 2.08 -3.4 2.72 c-1.44 0.56 -3.04 0.88 -4.84 0.88 z" fill="#FFFFFF"></path></g></svg>